<mxfile host="app.diagrams.net" modified="2023-12-03T09:59:29.267Z" agent="Mozilla/5.0 (Windows NT 10.0; Win64; x64; rv:120.0) Gecko/20100101 Firefox/120.0" version="22.1.3" etag="lRDkXPEWoVrmCc54ZAaS" type="github">
  <diagram name="Seite-1" id="18Wy0e9a14y2iKfFiZvs">
    <mxGraphModel>
      <root>
        <mxCell id="0" />
        <mxCell id="1" parent="0" />
      </root>
    </mxGraphModel>
  </diagram>
</mxfile>
